<svg width="24" height="22" viewBox="0 0 24 22" fill="none" xmlns="http://www.w3.org/2000/svg">
<path fill-rule="evenodd" clip-rule="evenodd" d="M24 10.5007C24 10.8985 23.842 11.28 23.5607 11.5613C23.2794 11.8425 22.8979 12.0006 22.5002 12.0006H5.12311L11.5634 18.4378C11.7028 18.5773 11.8135 18.7428 11.8889 18.925C11.9644 19.1072 12.0032 19.3025 12.0032 19.4997C12.0032 19.6969 11.9644 19.8922 11.8889 20.0744C11.8135 20.2566 11.7028 20.4221 11.5634 20.5616C11.4239 20.701 11.2584 20.8117 11.0762 20.8871C10.894 20.9626 10.6987 21.0014 10.5015 21.0014C10.3043 21.0014 10.109 20.9626 9.92682 20.8871C9.74462 20.8117 9.57907 20.701 9.43963 20.5616L0.440632 11.5626C0.300958 11.4233 0.190141 11.2578 0.11453 11.0756C0.0389195 10.8933 0 10.698 0 10.5007C0 10.3034 0.0389195 10.1081 0.11453 9.92589C0.190141 9.74367 0.300958 9.57816 0.440632 9.43884L9.43963 0.439846C9.72126 0.158218 10.1032 0 10.5015 0C10.8998 0 11.2818 0.158218 11.5634 0.439846C11.845 0.721474 12.0032 1.10344 12.0032 1.50173C12.0032 1.90001 11.845 2.28198 11.5634 2.56361L5.12311 9.00089H22.5002C22.8979 9.00089 23.2794 9.15891 23.5607 9.44018C23.842 9.72145 24 10.1029 24 10.5007Z" fill="#F6BE00"/>
</svg>
