<svg width="14" height="14" viewBox="0 0 14 14" fill="none" xmlns="http://www.w3.org/2000/svg">
<path d="M13.6666 9.66665V1.66665C13.6666 0.933313 13.0666 0.333313 12.3333 0.333313H4.33331C3.59998 0.333313 2.99998 0.933313 2.99998 1.66665V9.66665C2.99998 10.4 3.59998 11 4.33331 11H12.3333C13.0666 11 13.6666 10.4 13.6666 9.66665ZM6.59998 7.35331L7.68665 8.80665L9.40665 6.65998C9.43788 6.62105 9.47746 6.58963 9.52246 6.56804C9.56746 6.54645 9.61673 6.53524 9.66665 6.53524C9.71656 6.53524 9.76583 6.54645 9.81083 6.56804C9.85583 6.58963 9.89541 6.62105 9.92665 6.65998L11.9 9.12665C12.0733 9.34665 11.92 9.66665 11.64 9.66665H4.99998C4.93808 9.66665 4.87739 9.64941 4.82474 9.61686C4.77208 9.58432 4.72952 9.53775 4.70184 9.48238C4.67415 9.42702 4.66243 9.36503 4.66799 9.30338C4.67355 9.24172 4.69617 9.18284 4.73331 9.13331L6.06665 7.35331C6.19998 7.17998 6.46665 7.17998 6.59998 7.35331ZM0.333313 3.66665V12.3333C0.333313 13.0666 0.933313 13.6666 1.66665 13.6666H10.3333C10.7 13.6666 11 13.3666 11 13C11 12.6333 10.7 12.3333 10.3333 12.3333H2.33331C1.96665 12.3333 1.66665 12.0333 1.66665 11.6666V3.66665C1.66665 3.29998 1.36665 2.99998 0.99998 2.99998C0.633313 2.99998 0.333313 3.29998 0.333313 3.66665Z" fill="#F6BE00"/>
</svg>
