<svg width="14" height="12" viewBox="0 0 14 12" fill="none" xmlns="http://www.w3.org/2000/svg">
<path d="M12.5 2.0625H10.375L9.86875 0.64375C9.83377 0.546669 9.76968 0.462753 9.68522 0.403465C9.60077 0.344177 9.50006 0.312409 9.39688 0.3125H4.60313C4.39219 0.3125 4.20312 0.445312 4.13281 0.64375L3.625 2.0625H1.5C0.809375 2.0625 0.25 2.62187 0.25 3.3125V10.4375C0.25 11.1281 0.809375 11.6875 1.5 11.6875H12.5C13.1906 11.6875 13.75 11.1281 13.75 10.4375V3.3125C13.75 2.62187 13.1906 2.0625 12.5 2.0625ZM7 9.18749C5.61875 9.18749 4.5 8.06874 4.5 6.68749C4.5 5.30624 5.61875 4.18749 7 4.18749C8.38125 4.18749 9.5 5.30624 9.5 6.68749C9.5 8.06874 8.38125 9.18749 7 9.18749ZM5.5 6.68749C5.5 7.08532 5.65804 7.46685 5.93934 7.74815C6.22064 8.02945 6.60218 8.18749 7 8.18749C7.39782 8.18749 7.77936 8.02945 8.06066 7.74815C8.34196 7.46685 8.5 7.08532 8.5 6.68749C8.5 6.28967 8.34196 5.90814 8.06066 5.62683C7.77936 5.34553 7.39782 5.18749 7 5.18749C6.60218 5.18749 6.22064 5.34553 5.93934 5.62683C5.65804 5.90814 5.5 6.28967 5.5 6.68749Z" fill="#F6BE00"/>
</svg>
