<svg width="35" height="28" viewBox="0 0 35 28" fill="none" xmlns="http://www.w3.org/2000/svg">
<path d="M31.1111 18.6667H34.2222V21.7778H31.1111V18.6667ZM31.1111 12.4444H34.2222V15.5556H31.1111V12.4444ZM34.2222 24.8889H31.1111V28C32.6667 28 34.2222 26.4444 34.2222 24.8889ZM18.6667 0H21.7778V3.11111H18.6667V0ZM31.1111 6.22222H34.2222V9.33333H31.1111V6.22222ZM31.1111 0V3.11111H34.2222C34.2222 1.55556 32.6667 0 31.1111 0ZM0 6.22222H3.11111V9.33333H0V6.22222ZM24.8889 0H28V3.11111H24.8889V0ZM24.8889 24.8889H28V28H24.8889V24.8889ZM3.11111 0C1.55556 0 0 1.55556 0 3.11111H3.11111V0ZM12.4444 0H15.5556V3.11111H12.4444V0ZM6.22222 0H9.33333V3.11111H6.22222V0ZM0 12.4444V24.8889C0 26.6 1.4 28 3.11111 28H21.7778V12.4444H0ZM3.11111 24.8889L7 19.8956L9.78444 23.24L13.6733 18.2311L18.6667 24.8889H3.11111Z" fill="black"/>
</svg>
