<svg width="18" height="18" viewBox="0 0 18 18" fill="none" xmlns="http://www.w3.org/2000/svg">
<path d="M16.5207 6.66C16.3697 6.17061 16.1699 5.69761 15.9244 5.24813C15.5614 4.58101 15.1049 3.9692 14.5688 3.43125C13.4674 2.33 12.0642 1.58005 10.5367 1.27626C9.00907 0.972467 7.42571 1.12847 5.98679 1.72453C4.54787 2.32059 3.31801 3.32995 2.45273 4.62497C1.58745 5.91999 1.12561 7.44251 1.12561 9C1.12561 10.5575 1.58745 12.08 2.45273 13.375C3.31801 14.6701 4.54787 15.6794 5.98679 16.2755C7.42571 16.8715 9.00907 17.0275 10.5367 16.7237C12.0642 16.42 13.4674 15.67 14.5688 14.5688C15.1049 14.0308 15.5614 13.419 15.9244 12.7519C16.1699 12.3024 16.3697 11.8294 16.5207 11.34C16.9949 9.81605 16.9949 8.18396 16.5207 6.66ZM2.25004 9C2.25004 7.20979 2.9612 5.4929 4.22707 4.22703C5.49294 2.96116 7.20983 2.25 9.00004 2.25V15.75C7.20983 15.75 5.49294 15.0388 4.22707 13.773C2.9612 12.5071 2.25004 10.7902 2.25004 9Z" fill="#F6BE00"/>
</svg>
