<svg width="32" height="32" viewBox="0 0 32 32" fill="none" xmlns="http://www.w3.org/2000/svg">
<path d="M16 2C8.26875 2 2 8.26875 2 16C2 23.7313 8.26875 30 16 30C23.7313 30 30 23.7313 30 16C30 8.26875 23.7313 2 16 2ZM21.1688 21.3188L19.1063 21.3094L16 17.6063L12.8969 21.3062L10.8313 21.3156C10.6938 21.3156 10.5813 21.2062 10.5813 21.0656C10.5813 21.0062 10.6031 20.95 10.6406 20.9031L14.7063 16.0594L10.6406 11.2188C10.6029 11.1729 10.5819 11.1156 10.5813 11.0562C10.5813 10.9187 10.6938 10.8062 10.8313 10.8062L12.8969 10.8156L16 14.5188L19.1031 10.8188L21.1656 10.8094C21.3031 10.8094 21.4156 10.9187 21.4156 11.0594C21.4156 11.1187 21.3938 11.175 21.3563 11.2219L17.2969 16.0625L21.3594 20.9062C21.3969 20.9531 21.4188 21.0094 21.4188 21.0688C21.4188 21.2063 21.3063 21.3188 21.1688 21.3188Z" fill="#F6BE00"/>
</svg>
