<svg width="48" height="48" viewBox="0 0 48 48" fill="none" xmlns="http://www.w3.org/2000/svg">
<path d="M6 33H3V6C3.00079 5.20459 3.31712 4.44199 3.87956 3.87956C4.44199 3.31712 5.20459 3.00079 6 3H33V6H6V33ZM31.5 25.5C32.39 25.5 33.26 25.2361 34.0001 24.7416C34.7401 24.2471 35.3169 23.5443 35.6575 22.7221C35.9981 21.8998 36.0872 20.995 35.9135 20.1221C35.7399 19.2492 35.3113 18.4474 34.682 17.818C34.0526 17.1887 33.2508 16.7601 32.3779 16.5865C31.505 16.4128 30.6002 16.5019 29.7779 16.8425C28.9557 17.1831 28.2529 17.7599 27.7584 18.4999C27.2639 19.24 27 20.11 27 21C27.0012 22.1931 27.4757 23.337 28.3193 24.1807C29.163 25.0243 30.3069 25.4988 31.5 25.5ZM31.5 19.5C31.7967 19.5 32.0867 19.588 32.3334 19.7528C32.58 19.9176 32.7723 20.1519 32.8858 20.426C32.9994 20.7001 33.0291 21.0017 32.9712 21.2926C32.9133 21.5836 32.7704 21.8509 32.5607 22.0607C32.3509 22.2704 32.0836 22.4133 31.7926 22.4712C31.5017 22.5291 31.2001 22.4994 30.926 22.3858C30.6519 22.2723 30.4176 22.08 30.2528 21.8334C30.088 21.5867 30 21.2967 30 21C30 20.6022 30.158 20.2206 30.4393 19.9393C30.7206 19.658 31.1022 19.5 31.5 19.5Z" fill="white"/>
<path d="M42 10.5H13.5C12.7046 10.5008 11.942 10.8171 11.3796 11.3796C10.8171 11.942 10.5008 12.7046 10.5 13.5V42C10.5008 42.7954 10.8171 43.558 11.3796 44.1204C11.942 44.6829 12.7046 44.9992 13.5 45H42C42.7954 44.9992 43.558 44.6829 44.1204 44.1204C44.6829 43.558 44.9992 42.7954 45 42V13.5C44.9992 12.7046 44.6829 11.942 44.1204 11.3796C43.558 10.8171 42.7954 10.5008 42 10.5ZM42 42H13.5V33L19.5 27.0045L27.879 35.3835C28.4416 35.9459 29.2045 36.2619 30 36.2619C30.7955 36.2619 31.5584 35.9459 32.121 35.3835L34.5 33.0045L42 40.5V42ZM42 36.258L36.621 30.879C36.0584 30.3166 35.2955 30.0006 34.5 30.0006C33.7045 30.0006 32.9416 30.3166 32.379 30.879L30 33.258L21.621 24.879C21.0584 24.3166 20.2955 24.0006 19.5 24.0006C18.7045 24.0006 17.9416 24.3166 17.379 24.879L13.5 28.758V13.5H42V36.258Z" fill="white"/>
</svg>
