<svg width="17" height="17" viewBox="0 0 17 17" fill="none" xmlns="http://www.w3.org/2000/svg">
<path d="M8.50001 8.50001V1.21429H1.21429V8.50001H8.50001ZM3.44049 5.46429L4.45239 6.68263L5.86906 4.85715L7.69049 7.28572H2.02382L3.44049 5.46429Z" fill="#F6BE00"/>
<path d="M8.50001 15.7858V8.50006H1.21429V15.7858H8.50001ZM3.44049 12.7501L4.45239 13.9684L5.86906 12.1429L7.69049 14.5715H2.02382L3.44049 12.7501Z" fill="#F6BE00"/>
<path d="M15.7857 8.50001V1.21429H8.5V8.50001H15.7857ZM10.7262 5.46429L11.7381 6.68263L13.1548 4.85715L14.9762 7.28572H9.30952L10.7262 5.46429Z" fill="#F6BE00"/>
<path d="M15.7857 15.7858V8.50006H8.5V15.7858H15.7857ZM10.7262 12.7501L11.7381 13.9684L13.1548 12.1429L14.9762 14.5715H9.30952L10.7262 12.7501Z" fill="#F6BE00"/>
</svg>
