<svg width="20" height="20" viewBox="0 0 20 20" fill="none" xmlns="http://www.w3.org/2000/svg">
<path d="M19.456 8.154C19.579 8.813 19.646 9.502 19.646 10.221C19.646 15.845 15.882 19.844 10.197 19.844C8.90415 19.8444 7.6239 19.59 6.42939 19.0955C5.23489 18.6009 4.14954 17.8758 3.23536 16.9616C2.32118 16.0475 1.59609 14.9621 1.10152 13.7676C0.606957 12.5731 0.352603 11.2928 0.352997 10C0.352603 8.70716 0.606957 7.42691 1.10152 6.2324C1.59609 5.03789 2.32118 3.95254 3.23536 3.03836C4.14954 2.12418 5.23489 1.3991 6.42939 0.904528C7.6239 0.40996 8.90415 0.155606 10.197 0.156001C12.855 0.156001 15.076 1.134 16.78 2.722L14.005 5.497V5.49C12.972 4.506 11.661 4.001 10.197 4.001C6.949 4.001 4.309 6.745 4.309 9.994C4.309 13.242 6.949 15.992 10.197 15.992C13.144 15.992 15.15 14.307 15.562 11.993H10.197V8.154H19.457H19.456Z" fill="white"/>
</svg>
