<svg width="144" height="144" viewBox="0 0 144 144" fill="none" xmlns="http://www.w3.org/2000/svg">
<rect x="4" y="4" width="136" height="136" rx="68" stroke="#F6BE00" stroke-width="8" stroke-dasharray="100 20"/>
<path d="M72 35C67.7977 35 63.6365 35.8277 59.7541 37.4359C55.8717 39.044 52.3441 41.4011 49.3726 44.3726C46.4011 47.3441 44.044 50.8717 42.4359 54.7541C40.8277 58.6365 40 62.7977 40 67C40 71.2023 40.8277 75.3635 42.4359 79.2459C44.044 83.1283 46.4011 86.6559 49.3726 89.6274C52.3441 92.5989 55.8717 94.956 59.7541 96.5641C63.6366 98.1723 67.7977 99 72 99L72 67V35Z" fill="#F6BE00"/>
<path d="M72 99C76.2023 99 80.3635 98.1723 84.2459 96.5641C88.1283 94.956 91.6559 92.5989 94.6274 89.6274C97.5989 86.6559 99.956 83.1283 101.564 79.2459C103.172 75.3635 104 71.2023 104 67C104 62.7977 103.172 58.6365 101.564 54.7541C99.956 50.8717 97.5989 47.3441 94.6274 44.3726C91.6559 41.4011 88.1283 39.044 84.2459 37.4359C80.3635 35.8277 76.2023 35 72 35L72 67L72 99Z" fill="#987500"/>
<path fill-rule="evenodd" clip-rule="evenodd" d="M72 127.498C83.6214 127.424 94.7388 124.746 102.966 120.031C105.732 118.446 108.097 116.674 110.022 114.766C115.702 109.138 109.518 102 101.522 102H95.1846C91.9056 102 88.7326 104.161 85.7419 106.198C84.632 106.954 83.5472 107.693 82.4914 108.298C79.6943 109.901 75.9411 110.83 72 110.903V127.498Z" fill="#987500"/>
<path fill-rule="evenodd" clip-rule="evenodd" d="M72.2259 127.498C60.6045 127.424 49.4871 124.746 41.2596 120.031C38.4934 118.446 36.1289 116.674 34.2039 114.766C28.5242 109.138 34.7079 102 42.7038 102H49.0412C52.3202 102 55.4932 104.161 58.484 106.198C59.5939 106.954 60.6787 107.693 61.7345 108.298C64.5316 109.901 68.2848 110.83 72.2259 110.903V127.498Z" fill="#F6BE00"/>
</svg>
