<svg width="18" height="18" viewBox="0 0 18 18" fill="none" xmlns="http://www.w3.org/2000/svg">
<path d="M8.15625 14.2144H9.84375V17.4375H8.15625V14.2144ZM8.15625 0.5625H9.84375V3.78562H8.15625V0.5625ZM14.2141 8.15625H17.4375V9.84375H14.2141V8.15625ZM0.5625 8.15625H3.78591V9.84375H0.5625V8.15625ZM3.63066 15.563L2.43759 14.3696L4.71684 12.0909L5.90991 13.2843L3.63066 15.563ZM14.3693 2.43731L15.5624 3.63066L13.2832 5.90934L12.0901 4.716L14.3693 2.43731ZM14.3682 15.563L12.089 13.2837L13.2823 12.0904L15.5616 14.3696L14.3682 15.563ZM4.71628 5.90991L2.43703 3.63066L3.63009 2.43731L5.90934 4.71656L4.71628 5.90991ZM9 4.78125C6.67013 4.78125 4.78125 6.67013 4.78125 9C4.78125 11.3299 6.67013 13.2188 9 13.2188C11.3299 13.2188 13.2188 11.3299 13.2188 9C13.2188 6.67013 11.3299 4.78125 9 4.78125ZM9 11.8125C7.44694 11.8125 6.1875 10.5531 6.1875 9C6.1875 7.44694 7.44694 6.1875 9 6.1875C10.5531 6.1875 11.8125 7.44694 11.8125 9C11.8125 10.5531 10.5531 11.8125 9 11.8125Z" fill="#F6BE00"/>
</svg>
