<svg width="32" height="32" viewBox="0 0 32 32" fill="none" xmlns="http://www.w3.org/2000/svg">
<path d="M12.6667 16.0002C15.608 16.0002 18 13.6082 18 10.6668C18 7.7255 15.608 5.3335 12.6667 5.3335C9.72534 5.3335 7.33334 7.7255 7.33334 10.6668C7.33334 13.6082 9.72534 16.0002 12.6667 16.0002ZM14.6667 17.3335H10.6667C6.25467 17.3335 2.66667 20.9215 2.66667 25.3335V26.6668H22.6667V25.3335C22.6667 20.9215 19.0787 17.3335 14.6667 17.3335Z" fill="#F6BE00"/>
<path d="M22.1387 14.7308C22.9507 13.3469 23.3014 11.7405 23.14 10.1441C22.9013 7.76545 21.5733 5.66279 19.4027 4.22412L17.9293 6.44545C19.4213 7.43479 20.3293 8.84412 20.4867 10.4108C20.5592 11.1389 20.4686 11.8741 20.2213 12.5628C19.9741 13.2515 19.5764 13.8764 19.0573 14.3921L17.468 15.9815L19.6253 16.6148C25.268 18.2681 25.3333 23.9428 25.3333 24.0001H28C28 21.6148 26.7253 16.9535 22.1387 14.7308Z" fill="#F6BE00"/>
</svg>
