<svg width="28" height="28" viewBox="0 0 28 28" fill="none" xmlns="http://www.w3.org/2000/svg">
<path d="M26.5326 0.691293L27.3005 1.45094C28.3587 2.499 28.1986 4.35692 26.94 5.60068L11.1037 21.2662L5.97292 23.1228C5.32865 23.3571 4.70129 23.0533 4.57373 22.4468C4.53062 22.2269 4.55092 21.9993 4.6323 21.7902L6.54562 16.6709L22.3376 1.04794C23.5962 -0.195822 25.4744 -0.355477 26.5326 0.69258V0.691293ZM10.4126 2.24922C10.5835 2.24922 10.7528 2.28252 10.9107 2.34722C11.0686 2.41193 11.2121 2.50677 11.3329 2.62633C11.4538 2.74589 11.5497 2.88782 11.6151 3.04403C11.6805 3.20025 11.7142 3.36767 11.7142 3.53675C11.7142 3.70584 11.6805 3.87326 11.6151 4.02947C11.5497 4.18569 11.4538 4.32762 11.3329 4.44718C11.2121 4.56674 11.0686 4.66158 10.9107 4.72629C10.7528 4.79099 10.5835 4.82429 10.4126 4.82429H5.2063C4.5159 4.82429 3.85378 5.0956 3.36559 5.57852C2.87741 6.06144 2.60315 6.71642 2.60315 7.39937V22.8498C2.60315 23.5328 2.87741 24.1878 3.36559 24.6707C3.85378 25.1536 4.5159 25.4249 5.2063 25.4249H20.8252C21.5156 25.4249 22.1777 25.1536 22.6659 24.6707C23.1541 24.1878 23.4283 23.5328 23.4283 22.8498V17.6997C23.4283 17.3582 23.5655 17.0307 23.8096 16.7893C24.0537 16.5478 24.3847 16.4121 24.7299 16.4121C25.0751 16.4121 25.4062 16.5478 25.6503 16.7893C25.8944 17.0307 26.0315 17.3582 26.0315 17.6997V22.8498C26.0315 24.2157 25.483 25.5257 24.5066 26.4916C23.5302 27.4574 22.206 28 20.8252 28H5.2063C3.8255 28 2.50126 27.4574 1.52489 26.4916C0.548519 25.5257 0 24.2157 0 22.8498V7.39937C0 6.03347 0.548519 4.7235 1.52489 3.75766C2.50126 2.79182 3.8255 2.24922 5.2063 2.24922H10.4126Z" fill="#1E1E24"/>
</svg>
