<svg width="32" height="32" viewBox="0 0 32 32" fill="none" xmlns="http://www.w3.org/2000/svg">
<path d="M26.6667 8.33333V13.3167C26.6667 13.3167 23.35 13.3333 23.3333 13.3167V8.33333H18.3333C18.3333 8.33333 18.35 5.01667 18.3333 5H23.3333V0H26.6667V5H31.6667V8.33333H26.6667ZM21.6667 15V10H16.6667V5H3.33333C1.5 5 0 6.5 0 8.33333V28.3333C0 30.1667 1.5 31.6667 3.33333 31.6667H23.3333C25.1667 31.6667 26.6667 30.1667 26.6667 28.3333V15H21.6667ZM3.33333 28.3333L8.33333 21.6667L11.6667 26.6667L16.6667 20L23.3333 28.3333H3.33333Z" fill="#1E1E24"/>
</svg>
