<svg width="20" height="20" viewBox="0 0 20 20" fill="none" xmlns="http://www.w3.org/2000/svg">
<path d="M12.7549 5.82669C12.0008 5.32908 11.1259 5.0451 10.2233 5.00494C9.32072 4.96479 8.42409 5.16995 7.62876 5.59863C6.83343 6.02732 6.16912 6.66349 5.70645 7.43954C5.24377 8.21558 5.00002 9.1025 5.0011 10.006C5.00219 10.9095 5.24806 11.7958 5.7126 12.5708C6.17714 13.3457 6.84297 13.9803 7.63933 14.407C8.43568 14.8338 9.33279 15.0368 10.2353 14.9945C11.1378 14.9522 12.012 14.6661 12.7649 14.1667H9.99991V13.3334H13.7266C14.1633 12.8457 14.5002 12.2773 14.7182 11.66H9.99991V10.8267H14.9316C15.0219 10.2844 15.0228 9.73094 14.9341 9.18836H9.99991V8.35503H14.7232C14.5048 7.72912 14.164 7.15293 13.7207 6.66003H9.99991V5.82669H12.7549Z" fill="#F6BE00"/>
<path fill-rule="evenodd" clip-rule="evenodd" d="M18.3333 10C18.3333 5.39752 14.6025 1.66669 9.99996 1.66669C5.39746 1.66669 1.66663 5.39752 1.66663 10C1.66663 14.6025 5.39746 18.3334 9.99996 18.3334C14.6025 18.3334 18.3333 14.6025 18.3333 10ZM9.99996 16.6667C11.7681 16.6667 13.4638 15.9643 14.714 14.7141C15.9642 13.4638 16.6666 11.7681 16.6666 10C16.6666 8.23191 15.9642 6.53622 14.714 5.28598C13.4638 4.03573 11.7681 3.33335 9.99996 3.33335C8.23185 3.33335 6.53616 4.03573 5.28591 5.28598C4.03567 6.53622 3.33329 8.23191 3.33329 10C3.33329 11.7681 4.03567 13.4638 5.28591 14.7141C6.53616 15.9643 8.23185 16.6667 9.99996 16.6667Z" fill="#F6BE00"/>
</svg>
