<svg width="14" height="14" viewBox="0 0 14 14" fill="none" xmlns="http://www.w3.org/2000/svg">
<path d="M13 8.33333C12.8232 8.33333 12.6536 8.40357 12.5286 8.52859C12.4036 8.65361 12.3333 8.82318 12.3333 9V11.6667C12.3333 11.8435 12.2631 12.013 12.1381 12.1381C12.013 12.2631 11.8435 12.3333 11.6666 12.3333H2.33331C2.1565 12.3333 1.98693 12.2631 1.86191 12.1381C1.73688 12.013 1.66665 11.8435 1.66665 11.6667V9C1.66665 8.82318 1.59641 8.65361 1.47138 8.52859C1.34636 8.40357 1.17679 8.33333 0.99998 8.33333C0.823169 8.33333 0.653599 8.40357 0.528575 8.52859C0.403551 8.65361 0.333313 8.82318 0.333313 9V11.6667C0.333313 12.1971 0.544027 12.7058 0.9191 13.0809C1.29417 13.4559 1.80288 13.6667 2.33331 13.6667H11.6666C12.1971 13.6667 12.7058 13.4559 13.0809 13.0809C13.4559 12.7058 13.6666 12.1971 13.6666 11.6667V9C13.6666 8.82318 13.5964 8.65361 13.4714 8.52859C13.3464 8.40357 13.1768 8.33333 13 8.33333ZM6.52665 9.47333C6.59005 9.53402 6.66481 9.5816 6.74665 9.61333C6.82645 9.6486 6.91273 9.66682 6.99998 9.66682C7.08723 9.66682 7.17351 9.6486 7.25331 9.61333C7.33515 9.5816 7.40991 9.53402 7.47331 9.47333L10.14 6.80666C10.2655 6.68113 10.336 6.51086 10.336 6.33333C10.336 6.15579 10.2655 5.98553 10.14 5.85999C10.0144 5.73446 9.84418 5.66393 9.66665 5.66393C9.48911 5.66393 9.31885 5.73446 9.19331 5.85999L7.66665 7.39333V0.999995C7.66665 0.823184 7.59641 0.653615 7.47138 0.52859C7.34636 0.403566 7.17679 0.333328 6.99998 0.333328C6.82317 0.333328 6.6536 0.403566 6.52858 0.52859C6.40355 0.653615 6.33331 0.823184 6.33331 0.999995V7.39333L4.80665 5.85999C4.74449 5.79784 4.67069 5.74853 4.58948 5.71489C4.50827 5.68125 4.42122 5.66393 4.33331 5.66393C4.24541 5.66393 4.15836 5.68125 4.07715 5.71489C3.99593 5.74853 3.92214 5.79784 3.85998 5.85999C3.79782 5.92215 3.74851 5.99595 3.71487 6.07716C3.68123 6.15838 3.66392 6.24542 3.66392 6.33333C3.66392 6.42123 3.68123 6.50828 3.71487 6.58949C3.74851 6.67071 3.79782 6.7445 3.85998 6.80666L6.52665 9.47333Z" fill="#F6BE00"/>
</svg>
