<svg width="38" height="28" viewBox="0 0 38 28" fill="none" xmlns="http://www.w3.org/2000/svg">
<path d="M24.65 18.2667C21.85 16.8333 18.2167 15.6667 14 15.6667C9.78333 15.6667 6.15 16.8333 3.35 18.2667C2.53676 18.6855 1.8555 19.3216 1.38183 20.1041C0.908163 20.8867 0.660615 21.7853 0.666666 22.7V27.3333H27.3333V22.7C27.3333 20.8333 26.3167 19.1167 24.65 18.2667V18.2667ZM14 14C17.6833 14 20.6667 11.0167 20.6667 7.33334C20.6667 3.65 17.6833 0.666672 14 0.666672C10.3167 0.666672 7.33333 3.65 7.33333 7.33334C7.33333 11.0167 10.3167 14 14 14ZM32.3333 9V4H29V9H24V12.3333H29V17.3333H32.3333V12.3333H37.3333V9H32.3333Z" fill="#1E1E24"/>
</svg>
